# xmcd
#
# Track frame offsets: 
#        150
#        28084
#        42022
#        63832
#        105526
#        127015
#        139687
#        153008
#        177144
#        204636
#
# Disc length: 3229 seconds
#
# Revision: 1
# Processed by: cddbd v1.5.2PL0 Copyright (c) Steve Scherf et al.
# Submitted via: ExactAudioCopy v0.95b3
#
DISCID=7e0c9b0a
DTITLE=Maya Beiser - Almost Human
DYEAR=2007
DGENRE=Classical
TTITLE0=Eve Beglarian: I Am Writing To You From A Far Off Country (200
TTITLE0=6) - One-Two
TTITLE1=Eve Beglarian: I Am Writing To You From A Far Off Country (200
TTITLE1=6) - Three
TTITLE2=Eve Beglarian: I Am Writing To You From A Far Off Country (200
TTITLE2=6) - Four
TTITLE3=Eve Beglarian: I Am Writing To You From A Far Off Country (200
TTITLE3=6) - Five - Seven
TTITLE4=Eve Beglarian: I Am Writing To You From A Far Off Country (200
TTITLE4=6) - Eight - Nine
TTITLE5=Eve Beglarian: I Am Writing To You From A Far Off Country (200
TTITLE5=6) - Ten
TTITLE6=Eve Beglarian: I Am Writing To You From A Far Off Country (200
TTITLE6=6) - Eleven
TTITLE7=Eve Beglarian: I Am Writing To You From A Far Off Country (200
TTITLE7=6) - Twelve
TTITLE8=Jody Talbot: Motion Detector (2006)
TTITLE9=Jody Talbot: Falling (1998)
EXTD=YEAR: 2007
EXTT0=
EXTT1=
EXTT2=
EXTT3=
EXTT4=
EXTT5=
EXTT6=
EXTT7=
EXTT8=
EXTT9=
PLAYORDER=
